# xmcd
#
# Track frame offsets: 
#        150
#        20042
#        39151
#        56992
#        72930
#        91587
#        106820
#        132540
#        149831
#        171559
#        194421
#        209356
#        227743
#        252458
#        267377
#        283572
#        301302
#        320279
#        341466
#
# Disc length: 4753 seconds
#
# Revision: 0
# Processed by: cddbd v1.5.2PL0 Copyright (c) Steve Scherf et al.
# Submitted via: ExactAudioCopy v1.3
#
DISCID=26128f13
DTITLE=Various Artist - Akella Presents - vol.201 - Blues-Relax  CD2
DYEAR=2019
DGENRE=Blues
TTITLE0=Blue Attitude - No One Knows
TTITLE1=Decio Caetano - I Hate To Say Goodbye
TTITLE2=Snowy White - Crazy Situation Blues
TTITLE3=Johnny Hoy and the Bluefish - Gong Gong
TTITLE4=Miss Kaytie - Where the Magic Lives
TTITLE5=Willie Nelson - Seven Year Itch
TTITLE6=Bill Swindlehurst - Far Side Of Midnight
TTITLE7=Georgina Peach - I'd Rather Go Blind
TTITLE8=Black Pumas - OCT 33
TTITLE9=Pristine - Aurora Skies
TTITLE10=Woods and Taylor - Still Got The Blues For You
TTITLE11=Quiet the Dog - Rollin' Along
TTITLE12=Paul Nelson - Secret
TTITLE13=Derek Davis - Penitentiary Bound
TTITLE14=Big Creek Slim - On My Way
TTITLE15=Pontus Snibb - Behave Yourself
TTITLE16=Ryan Foret - I Don't Want to Know
TTITLE17=Chloe Litton - Happy
TTITLE18=Habaka - Just a Little Better
EXTD=
EXTT0=
EXTT1=
EXTT2=
EXTT3=
EXTT4=
EXTT5=
EXTT6=
EXTT7=
EXTT8=
EXTT9=
EXTT10=
EXTT11=
EXTT12=
EXTT13=
EXTT14=
EXTT15=
EXTT16=
EXTT17=
EXTT18=
PLAYORDER=
